<svg width="21" height="21" viewBox="0 0 21 21" fill="none" xmlns="http://www.w3.org/2000/svg">
<g clip-path="url(#clip0_159_9)">
<path d="M20.4217 5.82842L18.5309 7.71924C18.3381 7.91201 18.0264 7.91201 17.8336 7.71924L13.2809 3.1665C13.0881 2.97373 13.0881 2.66201 13.2809 2.46924L15.1717 0.578418C15.9387 -0.188574 17.1856 -0.188574 17.9567 0.578418L20.4217 3.04346C21.1928 3.81045 21.1928 5.05732 20.4217 5.82842ZM11.6567 4.09346L0.885973 14.8642L0.0164415 19.8476C-0.102504 20.5202 0.48402 21.1026 1.15668 20.9878L6.14007 20.1142L16.9108 9.34346C17.1036 9.15068 17.1036 8.83897 16.9108 8.64619L12.358 4.09346C12.1612 3.90068 11.8495 3.90068 11.6567 4.09346ZM5.09007 13.9413C4.86449 13.7157 4.86449 13.3548 5.09007 13.1292L11.4065 6.81279C11.6321 6.58721 11.993 6.58721 12.2186 6.81279C12.4442 7.03838 12.4442 7.39932 12.2186 7.6249L5.90218 13.9413C5.6766 14.1669 5.31566 14.1669 5.09007 13.9413ZM3.60941 17.3907H5.57816V18.8796L2.93265 19.3431L1.65707 18.0675L2.12054 15.422H3.60941V17.3907Z" fill="white"/>
</g>
<defs>
<clipPath id="clip0_159_9">
<rect width="21" height="21" fill="white"/>
</clipPath>
</defs>
</svg>
